<mxfile host="app.diagrams.net" modified="2021-05-28T06:39:46.806Z" agent="5.0 (Windows NT 10.0; Win64; x64) AppleWebKit/537.36 (KHTML, like Gecko) Chrome/90.0.4430.212 Safari/537.36" etag="N11PIYLefxiI2Co0uBAP" version="14.7.2" type="github">
  <diagram id="Az_o7xjclKsXQhINt3C_" name="Page-1">
    <mxGraphModel dx="2062" dy="1160" grid="0" gridSize="10" guides="1" tooltips="1" connect="1" arrows="1" fold="1" page="1" pageScale="1" pageWidth="827" pageHeight="1169" math="0" shadow="0">
      <root>
        <mxCell id="0" />
        <mxCell id="1" parent="0" />
        <mxCell id="te5Lnjg2BfOj6QI-0gv--1" value="" style="shape=table;html=1;whiteSpace=wrap;startSize=0;container=1;collapsible=0;childLayout=tableLayout;" parent="1" vertex="1">
          <mxGeometry x="354" y="400" width="120" height="270" as="geometry" />
        </mxCell>
        <mxCell id="te5Lnjg2BfOj6QI-0gv--20" style="shape=partialRectangle;html=1;whiteSpace=wrap;collapsible=0;dropTarget=0;pointerEvents=0;fillColor=none;top=0;left=0;bottom=0;right=0;points=[[0,0.5],[1,0.5]];portConstraint=eastwest;" parent="te5Lnjg2BfOj6QI-0gv--1" vertex="1">
          <mxGeometry width="120" height="45" as="geometry" />
        </mxCell>
        <mxCell id="te5Lnjg2BfOj6QI-0gv--21" style="shape=partialRectangle;html=1;whiteSpace=wrap;connectable=0;fillColor=none;top=0;left=0;bottom=0;right=0;overflow=hidden;" parent="te5Lnjg2BfOj6QI-0gv--20" vertex="1">
          <mxGeometry width="120" height="45" as="geometry" />
        </mxCell>
        <mxCell id="te5Lnjg2BfOj6QI-0gv--2" value="" style="shape=partialRectangle;html=1;whiteSpace=wrap;collapsible=0;dropTarget=0;pointerEvents=0;fillColor=none;top=0;left=0;bottom=0;right=0;points=[[0,0.5],[1,0.5]];portConstraint=eastwest;" parent="te5Lnjg2BfOj6QI-0gv--1" vertex="1">
          <mxGeometry y="45" width="120" height="45" as="geometry" />
        </mxCell>
        <mxCell id="te5Lnjg2BfOj6QI-0gv--14" style="shape=partialRectangle;html=1;whiteSpace=wrap;connectable=0;fillColor=none;top=0;left=0;bottom=0;right=0;overflow=hidden;" parent="te5Lnjg2BfOj6QI-0gv--2" vertex="1">
          <mxGeometry width="120" height="45" as="geometry" />
        </mxCell>
        <mxCell id="te5Lnjg2BfOj6QI-0gv--6" value="" style="shape=partialRectangle;html=1;whiteSpace=wrap;collapsible=0;dropTarget=0;pointerEvents=0;fillColor=none;top=0;left=0;bottom=0;right=0;points=[[0,0.5],[1,0.5]];portConstraint=eastwest;" parent="te5Lnjg2BfOj6QI-0gv--1" vertex="1">
          <mxGeometry y="90" width="120" height="45" as="geometry" />
        </mxCell>
        <mxCell id="te5Lnjg2BfOj6QI-0gv--15" value="&lt;font style=&quot;font-size: 18px&quot;&gt;RAS4&lt;/font&gt;" style="shape=partialRectangle;html=1;whiteSpace=wrap;connectable=0;fillColor=none;top=0;left=0;bottom=0;right=0;overflow=hidden;" parent="te5Lnjg2BfOj6QI-0gv--6" vertex="1">
          <mxGeometry width="120" height="45" as="geometry" />
        </mxCell>
        <mxCell id="te5Lnjg2BfOj6QI-0gv--30" style="shape=partialRectangle;html=1;whiteSpace=wrap;collapsible=0;dropTarget=0;pointerEvents=0;fillColor=none;top=0;left=0;bottom=0;right=0;points=[[0,0.5],[1,0.5]];portConstraint=eastwest;" parent="te5Lnjg2BfOj6QI-0gv--1" vertex="1">
          <mxGeometry y="135" width="120" height="45" as="geometry" />
        </mxCell>
        <mxCell id="te5Lnjg2BfOj6QI-0gv--31" value="&lt;font style=&quot;font-size: 18px&quot;&gt;RAS3&lt;/font&gt;" style="shape=partialRectangle;html=1;whiteSpace=wrap;connectable=0;fillColor=none;top=0;left=0;bottom=0;right=0;overflow=hidden;" parent="te5Lnjg2BfOj6QI-0gv--30" vertex="1">
          <mxGeometry width="120" height="45" as="geometry" />
        </mxCell>
        <mxCell id="te5Lnjg2BfOj6QI-0gv--32" style="shape=partialRectangle;html=1;whiteSpace=wrap;collapsible=0;dropTarget=0;pointerEvents=0;fillColor=none;top=0;left=0;bottom=0;right=0;points=[[0,0.5],[1,0.5]];portConstraint=eastwest;" parent="te5Lnjg2BfOj6QI-0gv--1" vertex="1">
          <mxGeometry y="180" width="120" height="45" as="geometry" />
        </mxCell>
        <mxCell id="te5Lnjg2BfOj6QI-0gv--33" value="&lt;font style=&quot;font-size: 18px&quot;&gt;RAS2&lt;/font&gt;" style="shape=partialRectangle;html=1;whiteSpace=wrap;connectable=0;fillColor=none;top=0;left=0;bottom=0;right=0;overflow=hidden;" parent="te5Lnjg2BfOj6QI-0gv--32" vertex="1">
          <mxGeometry width="120" height="45" as="geometry" />
        </mxCell>
        <mxCell id="te5Lnjg2BfOj6QI-0gv--34" style="shape=partialRectangle;html=1;whiteSpace=wrap;collapsible=0;dropTarget=0;pointerEvents=0;fillColor=none;top=0;left=0;bottom=0;right=0;points=[[0,0.5],[1,0.5]];portConstraint=eastwest;" parent="te5Lnjg2BfOj6QI-0gv--1" vertex="1">
          <mxGeometry y="225" width="120" height="45" as="geometry" />
        </mxCell>
        <mxCell id="te5Lnjg2BfOj6QI-0gv--35" value="&lt;font style=&quot;font-size: 18px&quot;&gt;RAS1&lt;/font&gt;" style="shape=partialRectangle;html=1;whiteSpace=wrap;connectable=0;fillColor=none;top=0;left=0;bottom=0;right=0;overflow=hidden;" parent="te5Lnjg2BfOj6QI-0gv--34" vertex="1">
          <mxGeometry width="120" height="45" as="geometry" />
        </mxCell>
        <mxCell id="te5Lnjg2BfOj6QI-0gv--36" value="&lt;font style=&quot;font-size: 24px&quot;&gt;RAS&lt;/font&gt;" style="text;html=1;strokeColor=none;fillColor=none;align=center;verticalAlign=middle;whiteSpace=wrap;rounded=0;" parent="1" vertex="1">
          <mxGeometry x="394" y="360" width="40" height="20" as="geometry" />
        </mxCell>
        <mxCell id="te5Lnjg2BfOj6QI-0gv--37" value="" style="shape=singleArrow;whiteSpace=wrap;html=1;gradientColor=none;" parent="1" vertex="1">
          <mxGeometry x="116" y="508" width="210" height="60" as="geometry" />
        </mxCell>
        <mxCell id="te5Lnjg2BfOj6QI-0gv--38" value="&lt;font style=&quot;font-size: 18px&quot;&gt;Push on jal&lt;/font&gt;" style="text;html=1;strokeColor=none;fillColor=none;align=center;verticalAlign=middle;whiteSpace=wrap;rounded=0;" parent="1" vertex="1">
          <mxGeometry x="153" y="497" width="100" height="20" as="geometry" />
        </mxCell>
        <mxCell id="te5Lnjg2BfOj6QI-0gv--39" value="" style="shape=singleArrow;whiteSpace=wrap;html=1;gradientColor=none;" parent="1" vertex="1">
          <mxGeometry x="491" y="508" width="220" height="60" as="geometry" />
        </mxCell>
        <mxCell id="te5Lnjg2BfOj6QI-0gv--40" value="&lt;font style=&quot;font-size: 18px&quot;&gt;Pop on jalr&lt;/font&gt;" style="text;html=1;strokeColor=none;fillColor=none;align=center;verticalAlign=middle;whiteSpace=wrap;rounded=0;" parent="1" vertex="1">
          <mxGeometry x="541" y="501" width="100" height="20" as="geometry" />
        </mxCell>
        <mxCell id="te5Lnjg2BfOj6QI-0gv--42" value="" style="endArrow=classic;html=1;" parent="1" edge="1">
          <mxGeometry width="50" height="50" relative="1" as="geometry">
            <mxPoint x="544" y="470" as="sourcePoint" />
            <mxPoint x="474" y="470" as="targetPoint" />
          </mxGeometry>
        </mxCell>
        <mxCell id="te5Lnjg2BfOj6QI-0gv--43" value="&lt;font style=&quot;font-size: 18px&quot;&gt;Pointer&lt;/font&gt;" style="text;html=1;strokeColor=none;fillColor=none;align=center;verticalAlign=middle;whiteSpace=wrap;rounded=0;" parent="1" vertex="1">
          <mxGeometry x="564" y="458" width="40" height="20" as="geometry" />
        </mxCell>
        <mxCell id="te5Lnjg2BfOj6QI-0gv--46" value="&lt;font style=&quot;font-size: 18px&quot;&gt;PC+4 for&amp;nbsp;&lt;br&gt;jal&lt;/font&gt;" style="rounded=0;whiteSpace=wrap;html=1;gradientColor=none;" parent="1" vertex="1">
          <mxGeometry x="26" y="411" width="55" height="254" as="geometry" />
        </mxCell>
        <mxCell id="te5Lnjg2BfOj6QI-0gv--47" value="&lt;font style=&quot;font-size: 18px&quot;&gt;RAS&lt;br&gt;for&amp;nbsp;&lt;br&gt;location&lt;br&gt;at&lt;br&gt;pointer - 1&lt;/font&gt;" style="rounded=0;whiteSpace=wrap;html=1;gradientColor=none;" parent="1" vertex="1">
          <mxGeometry x="721" y="412" width="89" height="244" as="geometry" />
        </mxCell>
      </root>
    </mxGraphModel>
  </diagram>
</mxfile>
